P3
16 16
255
230 137 104 	223 126 109 	173 65 91 	196 91 87 	201 97 86 	208 102 104 	207 98 104 	202 94 82 	207 96 102 	201 93 90 	197 114 108 	227 133 97 	228 150 130 	199 134 112 	195 89 89 	146 69 87 	
228 136 99 	218 122 98 	170 60 85 	189 79 82 	207 95 93 	201 96 100 	204 108 119 	215 132 128 	207 105 101 	185 80 87 	207 101 111 	227 124 109 	222 124 95 	246 160 135 	150 69 88 	88 16 54 	
197 98 92 	213 116 97 	170 64 76 	191 78 74 	202 84 84 	196 90 94 	198 119 125 	220 165 162 	220 198 175 	189 106 114 	206 87 93 	203 100 103 	219 103 90 	188 93 97 	76 31 62 	130 36 72 	
178 69 88 	212 115 99 	160 59 65 	197 87 86 	199 79 89 	196 89 95 	198 123 117 	215 171 144 	212 201 179 	224 197 188 	211 118 113 	160 70 80 	210 147 142 	113 38 69 	99 35 61 	215 130 135 	
190 75 80 	225 124 106 	155 57 70 	197 93 102 	200 88 102 	198 93 98 	214 135 130 	227 170 150 	235 167 168 	214 179 177 	215 171 162 	226 178 174 	212 181 178 	97 36 69 	182 104 104 	209 142 134 	
193 80 74 	230 128 113 	159 58 74 	191 94 87 	218 117 107 	199 101 102 	191 105 130 	167 93 128 	158 95 114 	214 149 153 	219 182 164 	223 181 165 	153 86 103 	120 49 81 	218 144 131 	211 134 128 	
185 79 81 	226 123 114 	160 56 67 	190 91 70 	220 127 112 	170 81 99 	125 46 94 	102 32 82 	178 127 146 	234 180 168 	203 145 131 	152 75 83 	104 24 61 	169 95 112 	223 139 137 	207 135 121 	
180 81 86 	228 125 118 	170 60 73 	191 86 80 	186 89 108 	116 29 80 	100 31 76 	171 118 124 	202 124 124 	235 163 149 	197 137 145 	106 44 83 	113 36 78 	200 131 116 	206 142 142 	193 131 120 	
166 68 83 	223 133 107 	180 70 81 	162 83 114 	118 57 117 	108 32 81 	146 75 89 	211 130 127 	187 81 101 	225 136 130 	157 77 90 	116 37 82 	149 70 102 	216 143 111 	199 124 119 	204 136 127 	
153 54 74 	219 125 100 	176 74 96 	128 61 105 	104 49 89 	126 56 82 	154 76 102 	206 106 108 	236 133 136 	227 129 126 	193 104 122 	130 50 79 	172 97 104 	205 133 108 	206 145 124 	238 195 160 	
151 56 78 	228 129 108 	160 70 105 	111 60 119 	121 73 95 	156 91 97 	124 39 81 	209 91 103 	214 109 103 	226 122 129 	154 62 87 	123 44 63 	203 131 119 	196 128 117 	221 172 140 	238 215 165 	
132 48 71 	235 138 121 	138 58 93 	106 60 124 	154 106 132 	112 52 60 	99 20 68 	181 64 82 	222 110 109 	197 104 115 	96 18 44 	148 73 94 	210 137 128 	191 125 129 	239 190 157 	241 201 166 	
135 67 88 	228 134 122 	125 51 78 	100 51 107 	150 94 141 	110 51 79 	99 26 71 	150 49 67 	225 106 110 	225 147 145 	154 99 105 	136 69 86 	184 113 107 	169 104 102 	235 175 141 	156 79 73 	
152 93 111 	218 132 115 	120 47 74 	89 33 82 	126 65 124 	141 80 124 	105 29 59 	169 76 87 	227 105 100 	221 145 129 	246 201 182 	167 111 110 	189 118 116 	225 153 138 	209 133 107 	151 57 71 	
148 89 109 	215 140 109 	112 42 76 	84 22 69 	116 58 109 	106 40 86 	142 46 60 	203 97 99 	222 104 94 	212 120 109 	237 176 155 	216 164 150 	146 75 81 	224 141 123 	171 86 83 	142 60 83 	
167 105 126 	213 144 103 	106 39 82 	101 39 88 	113 58 97 	108 37 77 	182 67 74 	215 96 88 	227 110 101 	223 112 118 	233 153 146 	219 166 150 	148 77 93 	182 87 81 	140 48 71 	127 66 99 	
